<svg fill="#727171" className="icon icon-android" viewBox="0 0 32 32">
  <path d="M24.639 10.037c0-3.058-1.778-5.716-4.396-7.103l1.326-2.515c0.194-0.35-0.292-0.579-0.465-0.272l-1.34 2.537c-2.313-1.050-5.097-1.108-7.521 0l-1.347-2.544c-0.167-0.3-0.66-0.079-0.465 0.272l1.326 2.522c-2.639 1.386-4.417 4.044-4.417 7.103h17.299zM12.056 6.822c-0.389 0-0.708-0.343-0.708-0.75s0.313-0.75 0.708-0.75c0.41 0 0.729 0.343 0.729 0.75s-0.319 0.75-0.729 0.75zM19.951 6.822c-0.41 0-0.729-0.343-0.729-0.75s0.319-0.75 0.729-0.75c0.389 0 0.708 0.343 0.708 0.75s-0.319 0.75-0.708 0.75zM4.757 22.585c1.069 0 1.91-0.879 1.91-1.979v-8.274c0-1.079-0.861-1.965-1.91-1.965-1.063 0-2.090 0.886-2.090 1.965v8.274c0 1.093 1.028 1.979 2.090 1.979zM27.243 22.585c1.069 0 2.090-0.886 2.090-1.979v-8.274c0-1.1-1.028-1.965-2.090-1.965-1.049 0-1.91 0.865-1.91 1.965v8.274c0 1.1 0.861 1.979 1.91 1.979zM14.708 30.031v-4.366h2.583v4.366c0 2.622 3.854 2.63 3.854 0v-4.366h1.403c1.125 0 2.042-0.943 2.042-2.115v-12.819h-17.174v12.819c0 1.172 0.917 2.115 2.056 2.115h1.382l0.021 4.366c0 2.637 3.833 2.615 3.833 0z"></path>
</svg>