<svg width="18" height="18" class="icon icon-apply-now" viewBox="0 0 32 32" xmlns="http://www.w3.org/2000/svg">
  <g transform="translate(2.0 7.0)">
    <path
      d="M4,0 L21,0 C23.209139,-4.05812251e-16 25,1.790861 25,4 L25,15 C25,17.209139 23.209139,19 21,19 L4,19 C1.790861,19 2.705415e-16,17.209139 0,15 L0,4 C-2.705415e-16,1.790861 1.790861,4.05812251e-16 4,0 Z"
      stroke="#25477B"
      stroke-width="2"
      fill="none"
      stroke-linecap="round"
      stroke-linejoin="round"
    />
  </g>
  <g transform="translate(2.0 13.00000000000002)">
    <path
      d="M0,0.666666667 L24,0.666666667"
      stroke="#25477B"
      stroke-width="2"
      fill="none"
      stroke-linecap="round"
      stroke-linejoin="round"
    />
  </g>
  <g transform="translate(7.6733333333334794 19.666666666666703)">
    <path
      d="M0.66,0.666666667 L0.673333333,0.666666667"
      stroke="#25477B"
      stroke-width="2"
      fill="none"
      stroke-linecap="round"
      stroke-linejoin="round"
    />
  </g>
  <g transform="translate(13.666666666666666 19.666666666666703)">
    <path
      d="M0,0.666666667 L2.66666667,0.666666667"
      stroke="#25477B"
      stroke-width="2"
      fill="none"
      stroke-linecap="round"
      stroke-linejoin="round"
    />
  </g>
  <g transform="translate(22.0 21.0)">
    <g clip-path="url(#i0)">
      <polygon points="0,0 7,0 7,7 0,7 0,0" stroke="none" fill="#FFFFFF" />
    </g>
  </g>
  <g transform="translate(22.908886371361405 22.10954323001718)">
    <g transform="translate(3.0 0.0)">
      <g clip-path="url(#i1)">
        <polygon points="0,0 2,0 2,7.99985553 0,7.99985553 0,0" stroke="none" fill="#E70694" />
      </g>
    </g>
    <g transform="translate(0.0 3.0)">
      <g clip-path="url(#i2)">
        <polygon points="0,0 8,0 8,2 0,2 0,0" stroke="none" fill="#E70694" />
      </g>
    </g>
  </g>
</svg>
