<svg fill="#727171" className="icon icon-apple" viewBox="0 0 32 32">
   <path d="M20.952 5.179c1.934-2.315 1.757-4.422 1.7-5.179-1.707 0.1-3.684 1.172-4.81 2.493-1.24 1.415-1.97 3.165-1.814 5.137 1.849 0.143 3.535-0.814 4.924-2.45zM22.064 31.999c3.443-0.050 6.405-5.894 7.269-8.523-4.042-1.919-4.357-5.403-4.373-6.334l-0-0.134c0.001-0.054 0.002-0.087 0.002-0.097-0.014-2.622 1.162-4.601 3.542-6.058-1.332-1.922-3.344-2.979-6.001-3.186-2.515-0.2-5.264 1.479-6.27 1.479-1.063 0-3.5-1.407-5.413-1.407-3.953 0.064-8.154 3.179-8.154 9.516 0 1.872 0.34 3.805 1.020 5.801 0.907 2.622 4.18 9.052 7.595 8.944 1.785-0.043 3.046-1.279 5.37-1.279 2.253 0 3.422 1.279 5.413 1.279z"></path>
</svg>