  <svg className="icon icon-calculator" viewBox="0 0 32 32">
     <path d="M26.115 0c2.514 0 4.552 2.017 4.552 4.505v0 22.99c0 2.488-2.038 4.505-4.552 4.505v0h-20.23c-2.514 0-4.552-2.017-4.552-4.505v0-22.99c0-2.488 2.038-4.505 4.552-4.505v0h20.23zM26.115 2.336h-20.23c-1.21 0-2.192 0.971-2.192 2.169v0 22.99c0 1.198 0.981 2.169 2.192 2.169v0h20.23c1.21 0 2.192-0.971 2.192-2.169v0-22.99c0-1.198-0.981-2.169-2.192-2.169v0zM10.006 22.081c0.692 0 1.262 0.515 1.34 1.179l0.009 0.171c0 0.737-0.604 1.335-1.349 1.335-0.692 0-1.262-0.515-1.34-1.179l-0.009-0.171c0-0.737 0.604-1.335 1.349-1.335zM16 22.081c0.692 0 1.262 0.515 1.34 1.179l0.009 0.171c0 0.737-0.604 1.335-1.349 1.335-0.692 0-1.262-0.515-1.34-1.179l-0.009-0.171c0-0.737 0.604-1.335 1.349-1.335zM21.994 22.081c0.692 0 1.262 0.515 1.34 1.179l0.009 0.171c0 0.737-0.604 1.335-1.349 1.335-0.692 0-1.262-0.515-1.34-1.179l-0.009-0.171c0-0.737 0.604-1.335 1.349-1.335zM10.006 17.632c0.692 0 1.262 0.515 1.34 1.179l0.009 0.171c0 0.737-0.604 1.335-1.349 1.335-0.692 0-1.262-0.515-1.34-1.179l-0.009-0.171c0-0.737 0.604-1.335 1.349-1.335zM16 17.632c0.692 0 1.262 0.515 1.34 1.179l0.009 0.171c0 0.737-0.604 1.335-1.349 1.335-0.692 0-1.262-0.515-1.34-1.179l-0.009-0.171c0-0.737 0.604-1.335 1.349-1.335zM21.994 17.632c0.692 0 1.262 0.515 1.34 1.179l0.009 0.171c0 0.737-0.604 1.335-1.349 1.335-0.692 0-1.262-0.515-1.34-1.179l-0.009-0.171c0-0.737 0.604-1.335 1.349-1.335zM20.496 7.583c1.386 0 2.51 1.112 2.51 2.484v0 1.483c0 1.372-1.124 2.484-2.51 2.484v0h-8.991c-1.386 0-2.51-1.112-2.51-2.484v0-1.483c0-1.372 1.124-2.484 2.51-2.484v0h8.991zM20.496 9.585h-8.991c-0.269 0-0.487 0.216-0.487 0.482v0 1.483c0 0.266 0.218 0.482 0.487 0.482v0h8.991c0.269 0 0.487-0.216 0.487-0.482v0-1.483c0-0.266-0.218-0.482-0.487-0.482v0z"></path>
  </svg>