<svg className="icon icon-contact-us" viewBox="0 0 32 32">
    <path fill="#ecf4ff" d="M8.453 20.218c-1.578 0-2.861-1.312-2.861-2.926v-11.7c0-1.614 1.282-2.926 2.861-2.926h20.021c1.578 0 2.859 1.312 2.859 2.926v11.7c0 1.614-1.281 2.926-2.859 2.926h-4.984z"></path>
    <path fill="#25477b" d="M24.362 6.325c1.827 0 3.316 1.46 3.391 3.283l0.003 0.145v11.31c0 1.842-1.442 3.349-3.251 3.425l-0.144 0.003h-4.871c-0.331 0-0.6-0.269-0.6-0.6 0-0.306 0.229-0.558 0.525-0.595l0.075-0.005h4.871c1.167 0 2.126-0.93 2.191-2.102l0.003-0.126v-11.31c0-1.188-0.919-2.159-2.070-2.225l-0.124-0.004h-19.566c-1.168 0-2.127 0.93-2.192 2.102l-0.003 0.126v11.31c0 1.23 0.986 2.228 2.196 2.228 0.331 0 0.6 0.269 0.6 0.6s-0.269 0.6-0.6 0.6c-1.827 0-3.318-1.46-3.393-3.283l-0.003-0.145v-11.31c0-1.842 1.443-3.349 3.252-3.425l0.144-0.003h19.566z"></path>
    <path fill="#25477b" d="M20.898 9.426l-13.192 13.191c-0.054 0.054-0.097 0.118-0.127 0.188l-2.62 6.115c-0.213 0.498 0.29 1.001 0.788 0.788l6.113-2.62c0.070-0.030 0.134-0.073 0.188-0.127l13.193-13.191c0.234-0.234 0.234-0.614 0-0.848l-3.494-3.495c-0.234-0.234-0.614-0.234-0.849-0zM21.322 10.699l2.646 2.646-12.689 12.686-4.627 1.983 1.985-4.631 12.685-12.685z"></path>
    <path fill="#25477b" d="M18.63 11.694c0.215-0.215 0.552-0.233 0.787-0.054l0.061 0.054 3.495 3.495c0.234 0.234 0.234 0.614 0 0.849-0.215 0.215-0.552 0.233-0.787 0.054l-0.061-0.054-3.495-3.495c-0.234-0.234-0.234-0.614-0-0.849z"></path>
    <path fill="#25477b" d="M7.706 22.617c0.215-0.215 0.552-0.233 0.787-0.053l0.061 0.054 3.493 3.495c0.234 0.234 0.234 0.614-0 0.849-0.215 0.215-0.552 0.233-0.787 0.053l-0.061-0.054-3.493-3.495c-0.234-0.234-0.234-0.614 0-0.849z"></path>
    <path fill="#e70695" d="M4.501 9.426c0.215-0.215 0.552-0.233 0.787-0.054l0.061 0.054 5.265 5.265c0.234 0.234 0.234 0.614 0 0.849-0.215 0.215-0.552 0.233-0.787 0.054l-0.061-0.054-5.265-5.265c-0.234-0.234-0.234-0.614 0-0.849z"></path>
</svg>