 <svg className="icon icon-file-search" viewBox="0 0 25 25">
   <path d="M14.629 13.846c2.215 0 4.011 1.756 4.011 3.923a3.84 3.84 0 0 1-.524 1.941l2.573 2.517a1.02 1.02 0 0 1 0 1.469 1.08 1.08 0 0 1-1.393.093l-.109-.093-2.574-2.516c-.585.326-1.262.513-1.984.513-2.215 0-4.011-1.756-4.011-3.923s1.796-3.923 4.011-3.923zM11.68 0c.089 0 .176.011.259.031l.045.012.09.03.03.013.082.039.038.021.082.053.02.015a1.07 1.07 0 0 1 .112.096l5.905 5.775.067.074-.079-.086c.035.034.067.071.097.109a1.03 1.03 0 0 1 .13.218l.042.115.012.046.017.078.005.032.003.023.006.113V12c0 .574-.475 1.038-1.062 1.038-.541 0-.988-.396-1.054-.908l-.008-.13-.001-4.154H12.86c-1.179 0-2.145-.89-2.235-2.021l-.007-.171-.001-3.578-7.196.001c-.669 0-1.22.495-1.29 1.131l-.008.138V19.5a1.28 1.28 0 0 0 1.156 1.262l.141.007H9.32c.586 0 1.062.465 1.062 1.038 0 .529-.405.966-.929 1.03l-.133.008H3.421c-1.822 0-3.311-1.393-3.416-3.15L0 19.5V3.346C0 1.564 1.424.107 3.22.006L3.421 0h8.258zm2.949 15.923c-1.043 0-1.888.827-1.888 1.846s.845 1.846 1.888 1.846 1.888-.827 1.888-1.846-.845-1.846-1.888-1.846zm-7.669.231c.586 0 1.062.465 1.062 1.038 0 .529-.405.966-.929 1.03l-.133.008h-1.18c-.586 0-1.062-.465-1.062-1.038 0-.529.405-.966.929-1.03l.133-.008h1.18zm3.539-4.615c.586 0 1.062.465 1.062 1.038 0 .529-.405.966-.929 1.03l-.133.008H5.781c-.586 0-1.062-.465-1.062-1.038 0-.529.405-.966.929-1.03l.133-.008H10.5zM6.961 6.923c.586 0 1.062.465 1.062 1.038 0 .529-.405.966-.929 1.03L6.961 9h-1.18c-.586 0-1.062-.465-1.062-1.038 0-.529.405-.966.929-1.03l.133-.008h1.18zm5.78-3.378l.001 2.109c0 .048.03.089.072.106l.046.009h2.154l-2.273-2.224z"></path>
</svg>