<svg className="icon icon-help-center" viewBox="0 0 32 32">
    <path d="M31.11 9.32c2.748 7.375-1.08 15.553-8.549 18.267S6.809 26.521 4.062 19.145 5.142 3.592 12.61.879 28.362 1.945 31.11 9.32z" fill="#ecf4ff"></path>
    <path d="M9.553 4.107C2.008 6.847-1.86 15.112.917 22.567s11.14 11.268 18.683 8.529 11.413-11.006 8.636-18.46S17.095 1.367 9.553 4.107zm17.793 8.86c2.592 6.958-1.02 14.675-8.07 17.237S4.4 29.196 1.807 22.235 2.826 7.56 9.877 4.999s14.876 1.007 17.469 7.968h0z"
    fill="#25477b"></path>
    <path d="M25.295 23.69l-.82-.477a11.11 11.11 0 0 0 .816-9.501l.889-.331c1.27 3.395.945 7.18-.885 10.309h0zM8.328 28.142l.475-.822c2.869 1.657 6.33 2.019 9.525.921l.309.897a12.47 12.47 0 0 1-10.308-.997h0zM4.032 11.221l.807.5c-1.752 2.829-2.173 6.281-1.081 9.474l-.898.307c-1.184-3.465-.727-7.213 1.172-10.281zm17.082-3.989l-.497.808c-2.845-1.75-6.309-2.18-9.496-1.178l-.285-.905c3.481-1.094 7.222-.603 10.277 1.274h0z"
    fill="#e70695"></path>
    <path d="M11.102 8.263c-5.22 1.896-7.897 7.616-5.975 12.775s7.708 7.797 12.925 5.901 7.897-7.616 5.975-12.775-7.707-7.797-12.925-5.901zm12.035 6.233c1.737 4.663-.683 9.835-5.41 11.552s-9.973-.675-11.712-5.341.683-9.835 5.41-11.552 9.973.675 11.712 5.341zm-8.958-4.544c-.723.043-1.298.638-1.298 1.368v1.276l-.08-.37a1.38 1.38 0 0 0-1.641-1.05l-.082.02a1.37 1.37 0 0 0-.979 1.609l.788 5.39-.843-.727c-.552-.501-1.424-.464-1.939.092l-.06.069c-.436.537-.401 1.315.081 1.81l.027.026 3.159 4.153.036.042c.604.624 1.438.977 2.311.977h2.117c2.247 0 3.196-1.536 3.196-4.147 0-.452.113-.896.328-1.294l1.296-2.402c.387-.621.183-1.469-.47-1.863l-.079-.044a1.39 1.39 0 0 0-1.818.494l-.338.524.539-2.897c.159-.728-.319-1.458-1.064-1.615l-.083-.015a1.38 1.38 0 0 0-1.557 1.066l-.081.352V11.32c0-.758-.62-1.371-1.382-1.371l-.084.002h-.001zm.084.947c.24 0 .433.19.433.421v5.674c0 .565.811.657.937.106l1.019-4.451c.052-.233.283-.38.516-.329a.42.42 0 0 1 .331.499l-.981 5.283c-.095.512.584.781.865.344l1.647-2.559a.44.44 0 0 1 .603-.145c.184.111.252.337.167.525l-1.338 2.478a3.68 3.68 0 0 0-.442 1.744c0 2.153-.645 3.198-2.247 3.198h-2.117l-.123-.003c-.528-.028-1.03-.24-1.418-.599l-.07-.069-3.16-4.155-.06-.065c-.083-.074-.133-.179-.138-.291s.035-.22.112-.302a.44.44 0 0 1 .615-.026l1.816 1.564c.333.287.843.006.779-.428l-.978-6.681c-.055-.258.091-.482.323-.53.238-.051.468.096.517.323l1.019 4.672c.121.555.938.467.938-.101v-5.678c0-.231.192-.421.433-.421h0z"
    fill="#25477b"></path>
</svg>