<svg fill="#727171" className="icon icon-huawei" viewBox="0 0 32 32">
  <path d="M4.893 7.987c0 0-2.467 2.219-2.6 4.563v0.439c0.107 1.893 1.627 3.009 1.627 3.009 2.44 2.244 8.346 5.065 9.733 5.704 0 0 0.080 0.038 0.133-0.013l0.027-0.050v-0.050c-3.786-7.76-8.919-13.602-8.919-13.602zM12.866 23.608c-0.027-0.1-0.133-0.1-0.133-0.1l-9.839 0.326c1.067 1.793 2.867 3.172 4.746 2.758 1.28-0.313 4.213-2.232 5.173-2.883 0.080-0.063 0.053-0.113 0.053-0.113v0.013zM12.973 22.63c-4.32-2.746-12.693-6.945-12.693-6.945-0.2 0.577-0.267 1.128-0.28 1.63v0.088c0 1.341 0.533 2.282 0.533 2.282 1.067 2.119 3.12 2.758 3.12 2.758 0.933 0.376 1.867 0.389 1.867 0.389 0.16 0.025 5.866 0 7.386 0 0.067 0 0.107-0.063 0.107-0.063v-0.075c0-0.038-0.040-0.063-0.040-0.063zM12.079 4.288c-1.941 0.466-3.331 2.068-3.426 3.949v0.514c0.040 0.752 0.213 1.316 0.213 1.316 0.88 3.636 5.146 9.591 6.066 10.844 0.067 0.063 0.133 0.038 0.133 0.038 0.053-0.021 0.085-0.072 0.080-0.125 1.413-13.289-1.48-16.824-1.48-16.824-0.427 0.025-1.587 0.288-1.587 0.288zM23.145 7.134c0 0-0.653-2.257-3.253-2.858 0 0-0.76-0.176-1.56-0.276 0 0-2.906 3.523-1.493 16.837 0.013 0.088 0.080 0.1 0.080 0.1 0.093 0.038 0.133-0.038 0.133-0.038 0.96-1.291 5.2-7.221 6.066-10.832 0 0 0.48-1.755 0.027-2.934zM19.252 23.52c0 0-0.093 0-0.12 0.063 0 0-0.013 0.088 0.040 0.125 0.933 0.639 3.8 2.507 5.173 2.883 0 0 0.213 0.063 0.573 0.075h0.187c0.92-0.025 2.533-0.464 4-2.833l-9.853-0.313zM29.692 12.976c0.187-2.583-2.587-4.977-2.587-4.99 0 0-5.133 5.842-8.893 13.54 0 0-0.040 0.1 0.027 0.163l0.053 0.013h0.080c1.413-0.664 7.28-3.473 9.706-5.692 0 0 1.533-1.166 1.613-3.034zM31.718 15.659c0 0-8.373 4.225-12.693 6.958 0 0-0.067 0.050-0.040 0.138 0 0 0.040 0.075 0.093 0.075 1.547 0 7.413 0 7.56-0.025 0 0 0.76-0.025 1.693-0.364 0 0 2.080-0.627 3.16-2.846 0 0 0.973-1.818 0.227-3.937v0z"></path>
</svg>