<svg width="20" fill="#727171" class="icon icon-instagram" viewBox="0 0 32 32" xmlns="http://www.w3.org/2000/svg">
  <path d="M22.6 31.888c2.563-0.121 4.833-0.707 6.703-2.585 1.87-1.871 2.456-4.141 2.584-6.705 0.15-2.642 0.15-10.554 0-13.196-0.121-2.563-0.707-4.834-2.584-6.705-1.87-1.871-4.141-2.456-6.703-2.585-2.641-0.15-10.558-0.15-13.2 0-2.556 0.121-4.826 0.707-6.703 2.578s-2.456 4.141-2.584 6.705c-0.15 2.642-0.15 10.561 0 13.203 0.121 2.563 0.707 4.834 2.584 6.705s4.141 2.456 6.703 2.585c2.641 0.15 10.558 0.15 13.2 0zM16.004 29.117c-2.327 0-7.332 0.186-9.43-0.643-1.399-0.557-2.477-1.635-3.041-3.042-0.835-2.106-0.643-7.105-0.643-9.433s-0.186-7.333 0.643-9.433c0.557-1.399 1.635-2.478 3.041-3.042 2.106-0.835 7.103-0.643 9.43-0.643s7.332-0.186 9.431 0.643c1.399 0.557 2.477 1.635 3.041 3.042 0.835 2.106 0.642 7.105 0.642 9.433s0.193 7.333-0.642 9.433c-0.557 1.399-1.635 2.478-3.041 3.042-2.106 0.835-7.103 0.643-9.431 0.643zM24.542 9.374c1.057 0 1.913-0.85 1.913-1.914 0-1.057-0.857-1.914-1.913-1.914s-1.913 0.857-1.913 1.914c0 1.057 0.849 1.914 1.913 1.914zM16.004 24.204c4.54 0 8.203-3.663 8.203-8.204s-3.662-8.204-8.203-8.204c-4.54 0-8.203 3.663-8.203 8.204s3.662 8.204 8.203 8.204zM16.004 21.334c-2.934 0-5.333-2.392-5.333-5.334s2.392-5.334 5.333-5.334c2.941 0 5.333 2.392 5.333 5.334s-2.399 5.334-5.333 5.334z"></path>
</svg>
