<svg width="20" fill="#727171" class="icon icon-linkedin" viewBox="0 0 32 32" xmlns="http://www.w3.org/2000/svg">
  <path d="M3.842 7.721c2.121 0 3.842-1.757 3.842-3.879s-1.721-3.842-3.842-3.842-3.842 1.721-3.842 3.842c0 2.121 1.721 3.879 3.842 3.879zM17.946 32v-10.579c0-2.786 0.529-5.479 3.978-5.479 3.399 0 3.449 3.179 3.449 5.657v10.4h6.627v-11.736c0-5.743-1.234-10.165-7.949-10.165-3.228 0-5.391 1.771-6.277 3.45h-0.093v-2.914h-6.363v21.365h6.627zM7.163 32v-21.365h-6.634v21.365h6.634z"></path>
</svg>
