<svg className="icon icon-location" viewBox="0 0 32 32">
    <path fill="#ecf4ff" d="M22.974 21.295c-2.352 3.356-4.641 6.038-4.641 6.038s-9.667-11.324-9.667-16.546c0-5.221 4.325-9.454 9.667-9.454 5.339 0 9.667 4.234 9.667 9.454 0 1-0.353 2.222-0.926 3.546z"></path>
    <path fill="#25477b" d="M14.333 3.333c5.704 0 10.333 4.528 10.333 10.121 0 1.060-0.342 2.333-0.981 3.81-0.146 0.338-0.539 0.493-0.877 0.347s-0.493-0.539-0.347-0.877c0.573-1.325 0.871-2.436 0.871-3.281 0-4.849-4.026-8.788-9-8.788-4.975 0-9 3.937-9 8.788 0 1.512 0.942 3.814 2.631 6.64 0.613 1.025 1.313 2.101 2.083 3.211 1.048 1.511 2.173 3.011 3.298 4.43l0.384 0.481 0.604 0.743 0.55-0.676 0.367-0.458c1.075-1.353 2.158-2.789 3.178-4.246 0.211-0.302 0.627-0.375 0.929-0.163s0.375 0.627 0.163 0.929c-1.037 1.48-2.136 2.938-3.227 4.31l-0.551 0.686-0.717 0.872-0.186 0.221c-0.266 0.312-0.748 0.312-1.014 0l-0.34-0.405-0.428-0.521-0.561-0.696c-0.065-0.081-0.131-0.164-0.197-0.248-1.141-1.439-2.282-2.961-3.348-4.498-0.786-1.134-1.502-2.234-2.132-3.287-1.807-3.022-2.82-5.5-2.82-7.324 0-5.593 4.628-10.121 10.333-10.121z"></path>
    <path fill="#e70695" d="M13.999 9.333c-2.208 0-3.999 1.792-3.999 3.999 0 2.209 1.791 4 3.999 4 2.21 0 4.001-1.791 4.001-4 0-2.208-1.791-3.999-4-3.999zM13.999 10.667c1.473 0 2.667 1.194 2.667 2.666 0 1.473-1.194 2.667-2.667 2.667-1.472 0-2.666-1.194-2.666-2.667 0-1.471 1.195-2.666 2.666-2.666z"></path>
</svg>