<svg className="icon icon-phone" viewBox="0 0 32 32">
    <path fill="#ecf4ff" d="M13.453 11.31c1.031-1.034 1.031-2.71 0-3.743l-2.808-2.808c-1.033-1.033-2.71-1.033-3.741 0l-1.543 1.541c-1.333 1.333-1.541 3.419-0.499 4.994 4.473 6.76 10.44 12.729 17.202 17.201 1.572 1.040 3.663 0.834 4.994-0.501l1.539-1.539c1.033-1.033 1.033-2.709 0-3.743l-2.806-2.808c-1.034-1.033-2.709-1.033-3.743 0l-0.935 0.937c-3.079-2.522-6.076-5.518-8.597-8.596l0.937-0.935z"></path>
    <path fill="#25477b" d="M3.713 6.821l-1.437 1.435c-1.467 1.467-1.696 3.761-0.55 5.494 4.22 6.377 9.845 12.003 16.219 16.218 1.731 1.145 4.030 0.916 5.494-0.552l1.434-1.434c1.223-1.223 1.223-3.207 0-4.431l-2.616-2.617-0.113-0.108c-1.231-1.114-3.13-1.078-4.317 0.107l-0.443 0.443-0.034-0.028c-2.326-1.953-4.588-4.19-6.582-6.506l-0.452-0.532 0.443-0.441c1.221-1.225 1.221-3.209 0.001-4.431l-2.617-2.617c-1.223-1.223-3.209-1.223-4.43 0zM7.2 7.763l2.617 2.617c0.701 0.702 0.701 1.843-0.001 2.546l-0.872 0.87c-0.243 0.242-0.262 0.629-0.045 0.894 2.379 2.903 5.203 5.727 8.105 8.104 0.265 0.217 0.652 0.198 0.894-0.045l0.871-0.873c0.703-0.702 1.842-0.702 2.545 0.001l2.615 2.616c0.702 0.703 0.702 1.843 0 2.545l-1.435 1.435c-1.016 1.018-2.612 1.178-3.815 0.382-6.225-4.116-11.722-9.614-15.843-15.841-0.796-1.204-0.638-2.797 0.38-3.815l1.437-1.436c0.701-0.702 1.842-0.702 2.544-0z"></path>
    <path fill="#e70695" d="M15.848 1c8.201 0 14.848 6.647 14.848 14.848 0 0.368-0.298 0.667-0.667 0.667s-0.667-0.298-0.667-0.667c0-7.465-6.050-13.515-13.515-13.515-0.368 0-0.667-0.298-0.667-0.667s0.298-0.667 0.667-0.667z"></path>
    <path fill="#e70695" d="M15.848 5.933c5.476 0 9.915 4.438 9.915 9.915 0 0.368-0.298 0.667-0.667 0.667s-0.667-0.298-0.667-0.667c0-4.74-3.842-8.582-8.582-8.582-0.368 0-0.667-0.298-0.667-0.667s0.298-0.667 0.667-0.667z"></path>
    <path fill="#e70695" d="M15.848 10.865c2.752 0 4.982 2.229 4.982 4.982 0 0.368-0.298 0.667-0.667 0.667s-0.667-0.298-0.667-0.667c0-2.016-1.633-3.649-3.649-3.649-0.368 0-0.667-0.298-0.667-0.667s0.298-0.667 0.667-0.667z"></path>
</svg>