<svg width="20" fill="#727171" class="icon icon-twitter" viewBox="0 0 32 32" xmlns="http://www.w3.org/2000/svg">
  <path d="M10.071 29.333c12.061 0 18.66-9.738 18.66-18.189 0-0.277 0-0.554-0.020-0.831 1.279-0.91 2.396-2.039 3.289-3.305-1.178 0.495-2.457 0.851-3.777 0.99 1.36-0.792 2.396-2.038 2.883-3.523-1.259 0.732-2.68 1.267-4.162 1.544-1.198-1.247-2.904-2.019-4.792-2.019-3.634 0-6.558 2.87-6.558 6.393 0 0.495 0.061 0.99 0.162 1.465-5.442-0.277-10.294-2.81-13.523-6.69-0.569 0.95-0.893 2.039-0.893 3.226 0 2.217 1.157 4.176 2.924 5.324-1.076-0.040-2.091-0.336-2.964-0.811v0.079c0 3.107 2.254 5.68 5.259 6.274-0.548 0.139-1.137 0.218-1.726 0.218-0.426 0-0.833-0.040-1.239-0.099 0.833 2.533 3.249 4.374 6.132 4.433-2.254 1.722-5.076 2.731-8.142 2.731-0.548 0-1.056-0.020-1.584-0.079 2.904 1.821 6.355 2.87 10.071 2.87z"></path>
</svg>
