<svg width="20" fill="#727171" class="icon icon-youtube" viewBox="0 0 32 32" xmlns="http://www.w3.org/2000/svg">
  <path d="M28.503 25.99c1.377-0.373 2.461-1.427 2.829-2.823 0.61-2.307 0.663-6.9 0.668-7.692v-0.236c-0.005-0.793-0.059-5.385-0.668-7.692-0.368-1.396-1.452-2.496-2.829-2.869-2.394-0.65-11.698-0.677-12.454-0.678h-0.098c-0.756 0.001-10.060 0.028-12.454 0.678-1.377 0.373-2.461 1.473-2.829 2.869-0.61 2.307-0.663 6.9-0.668 7.692v0.236c0.005 0.793 0.059 5.385 0.668 7.692 0.368 1.396 1.452 2.45 2.829 2.823 2.19 0.595 10.165 0.668 12.085 0.677h0.836c1.92-0.009 9.895-0.082 12.085-0.677zM12.727 20.15v-9.587l8.364 4.794-8.364 4.793z"></path>
</svg>
